<svg xmlns="http://www.w3.org/2000/svg" width="94.69" height="106.667" viewBox="0 0 94.69 106.667"><path d="M46.373,104.83a8.126,8.126,0,0,1-4.025-1.079l-12.8-7.572c-1.909-1.079-.975-1.452-.353-1.66a25.214,25.214,0,0,0,5.788-2.635.936.936,0,0,1,.954.083L45.772,97.8a1.2,1.2,0,0,0,1.182,0L85.271,75.683a1.228,1.228,0,0,0,.581-1.037V30.417a1.236,1.236,0,0,0-.6-1.058L46.954,7.266a1.2,1.2,0,0,0-1.182,0L7.5,29.38a1.211,1.211,0,0,0-.6,1.058V74.646a1.145,1.145,0,0,0,.6,1.017l10.5,6.058c5.7,2.842,9.19-.5,9.19-3.879V34.193a1.1,1.1,0,0,1,1.12-1.1h4.854a1.111,1.111,0,0,1,1.12,1.1V77.862c0,7.593-4.149,11.949-11.348,11.949-2.22,0-3.962,0-8.817-2.406L4.074,81.616A8.067,8.067,0,0,1,.049,74.625V30.417a8.092,8.092,0,0,1,4.025-6.991L42.349,1.312a8.4,8.4,0,0,1,8.049,0L88.714,23.447a8.067,8.067,0,0,1,4.025,6.991V74.646a8.117,8.117,0,0,1-4.025,6.991L50.4,103.752A8.068,8.068,0,0,1,46.373,104.83ZM77.3,61.245c0-8.277-5.6-10.476-17.364-12.032C48.033,47.636,46.83,46.827,46.83,44.047c0-2.3,1.017-5.373,9.833-5.373,7.862,0,10.767,1.7,11.97,7.012a1.111,1.111,0,0,0,1.079.871h4.979A1.083,1.083,0,0,0,75.5,46.2a1.155,1.155,0,0,0,.29-.851c-.768-9.149-6.846-13.4-19.127-13.4-10.933,0-17.447,4.605-17.447,12.343,0,8.381,6.493,10.7,16.97,11.742,12.551,1.224,13.526,3.07,13.526,5.539,0,4.274-3.444,6.1-11.514,6.1-10.144,0-12.364-2.552-13.111-7.593a1.1,1.1,0,0,0-1.1-.934H39.03a1.093,1.093,0,0,0-1.1,1.1C37.93,66.7,41.436,74.4,58.219,74.4,70.334,74.376,77.3,69.584,77.3,61.245Z" transform="translate(0.951 0.837)" fill="none" stroke="#151d41" stroke-width="2"/></svg>