<svg xmlns="http://www.w3.org/2000/svg" width="106.211" height="103.611" viewBox="0 0 106.211 103.611"><path d="M34.856,82.377c0,.42-.483.756-1.093.756-.693.063-1.177-.273-1.177-.756,0-.42.483-.756,1.093-.756C34.31,81.557,34.856,81.894,34.856,82.377Zm-6.534-.945c-.147.42.273.9.9,1.03a.986.986,0,0,0,1.3-.42c.126-.42-.273-.9-.9-1.093A1.078,1.078,0,0,0,28.322,81.431Zm9.287-.357c-.609.147-1.03.546-.966,1.03.063.42.609.693,1.24.546.609-.147,1.03-.546.966-.966C38.785,81.284,38.218,81.011,37.609,81.074ZM51.433.563C22.292.563,0,22.686,0,51.828a52.675,52.675,0,0,0,35.613,50.257c2.689.483,3.635-1.177,3.635-2.542,0-1.3-.063-8.488-.063-12.9,0,0-14.707,3.152-17.8-6.261,0,0-2.4-6.114-5.841-7.69,0,0-4.811-3.3.336-3.236a11.09,11.09,0,0,1,8.11,5.421c4.6,8.11,12.312,5.778,15.317,4.391a11.677,11.677,0,0,1,3.362-7.08c-11.745-1.3-23.595-3-23.595-23.216,0-5.778,1.6-8.677,4.958-12.375-.546-1.366-2.332-7,.546-14.266C28.973,20.964,39.079,28,39.079,28a49.635,49.635,0,0,1,26.389,0s10.106-7.059,14.5-5.673c2.878,7.291,1.093,12.9.546,14.266,3.362,3.719,5.421,6.618,5.421,12.375,0,20.275-12.375,21.893-24.12,23.216,1.933,1.66,3.572,4.811,3.572,9.749,0,7.08-.063,15.842-.063,17.565,0,1.366.966,3.025,3.635,2.542,21.01-6.975,35.255-26.914,35.255-50.215C104.211,22.686,80.575.563,51.433.563ZM20.422,73.027c-.273.21-.21.693.147,1.093.336.336.819.483,1.093.21.273-.21.21-.693-.147-1.093C21.178,72.9,20.7,72.754,20.422,73.027Zm-2.269-1.7c-.147.273.063.609.483.819a.625.625,0,0,0,.9-.147c.147-.273-.063-.609-.483-.819C18.636,71.052,18.3,71.115,18.153,71.325Zm6.807,7.48c-.336.273-.21.9.273,1.3.483.483,1.093.546,1.366.21.273-.273.147-.9-.273-1.3C25.864,78.532,25.233,78.469,24.96,78.805Zm-2.4-3.089c-.336.21-.336.756,0,1.24s.9.693,1.177.483a.958.958,0,0,0,0-1.3C23.448,75.653,22.9,75.443,22.565,75.716Z" transform="translate(1 0.438)" fill="none" stroke="#151d41" stroke-width="2"/></svg>