<svg xmlns="http://www.w3.org/2000/svg" width="108.931" height="97.387" viewBox="0 0 108.931 97.387"><path d="M87.341,33.1q-1.692-.574-3.383-1.083c.188-.786.355-1.572.522-2.358,2.569-12.662.877-22.838-4.824-26.2C74.163.251,65.2,3.587,56.139,11.617c-.9.786-1.775,1.615-2.611,2.443-.564-.552-1.149-1.1-1.733-1.636C42.292,3.842,32.769.23,27.067,3.608c-5.472,3.229-7.1,12.811-4.8,24.793.23,1.19.48,2.358.773,3.548-1.337.382-2.652.807-3.885,1.253C8,37.133,0,43.336,0,49.752,0,56.381,8.521,63.03,20.112,67.067c.94.319,1.88.637,2.84.914-.313,1.275-.585,2.528-.835,3.824-2.193,11.791-.48,21.139,4.992,24.347,5.639,3.314,15.121-.085,24.352-8.307.731-.659,1.462-1.338,2.193-2.061.919.914,1.88,1.785,2.84,2.634,8.939,7.818,17.773,10.984,23.224,7.776,5.639-3.314,7.477-13.363,5.1-25.6q-.282-1.4-.627-2.868c.668-.191,1.316-.4,1.963-.616,12.051-4.058,20.781-10.623,20.781-17.357,0-6.437-8.229-12.683-19.59-16.656ZM59.084,15.059C66.853,8.176,74.1,5.477,77.4,7.411c3.53,2.061,4.887,10.389,2.673,21.33-.146.722-.292,1.423-.48,2.125a105.24,105.24,0,0,0-14.056-2.252,107.04,107.04,0,0,0-8.9-11.281C57.455,16.546,58.248,15.8,59.084,15.059ZM34.92,60.778c1.065,1.848,2.151,3.7,3.3,5.5a93.1,93.1,0,0,1-9.691-1.593,100.353,100.353,0,0,1,3.4-9.454C32.894,57.1,33.875,58.951,34.92,60.778ZM28.592,35.22c3.007-.68,6.2-1.232,9.524-1.657-1.107,1.763-2.193,3.569-3.216,5.4-1.023,1.806-2.026,3.654-2.966,5.524-1.316-3.166-2.423-6.267-3.342-9.263Zm5.722,14.638c1.378-2.932,2.882-5.8,4.469-8.625s3.3-5.566,5.1-8.264c3.133-.234,6.328-.361,9.586-.361s6.474.127,9.586.361q2.663,4.015,5.075,8.222t4.532,8.583q-2.1,4.4-4.511,8.668c-1.587,2.826-3.279,5.566-5.054,8.286-3.112.234-6.349.34-9.628.34s-6.453-.106-9.524-.3q-2.725-4.047-5.138-8.286c-1.608-2.826-3.091-5.694-4.49-8.625ZM72.032,60.736c1.065-1.87,2.068-3.76,3.049-5.672a99.677,99.677,0,0,1,3.53,9.412,90.314,90.314,0,0,1-9.816,1.7C69.923,64.39,70.988,62.563,72.032,60.736ZM75.04,44.483c-.982-1.87-1.984-3.739-3.028-5.566q-1.535-2.709-3.2-5.354a94.628,94.628,0,0,1,9.586,1.7A95.057,95.057,0,0,1,75.04,44.483Zm-21.532-23.9a92.962,92.962,0,0,1,6.182,7.606C55.554,28,51.4,28,47.263,28.188,49.309,25.448,51.419,22.9,53.507,20.583ZM29.281,7.559c3.509-2.082,11.3.892,19.507,8.286.522.467,1.044.977,1.587,1.487a107.618,107.618,0,0,0-8.96,11.281A108.361,108.361,0,0,0,27.38,30.823c-.272-1.083-.5-2.188-.731-3.293-1.963-10.283-.668-18.037,2.632-19.97Zm-5.117,56c-.877-.255-1.733-.531-2.59-.829A42.311,42.311,0,0,1,8.417,56.1,9.553,9.553,0,0,1,4.49,49.752c0-3.888,6.6-8.859,16.123-12.237,1.19-.425,2.4-.807,3.613-1.168a114.165,114.165,0,0,0,5.117,13.512,117.363,117.363,0,0,0-5.179,13.7Zm24.352,20.82a38.136,38.136,0,0,1-11.779,7.5,9.1,9.1,0,0,1-7.372.276c-3.321-1.955-4.7-9.454-2.819-19.545.23-1.19.48-2.379.773-3.548A102.823,102.823,0,0,0,41.5,71.146a111.781,111.781,0,0,0,9.022,11.345C49.852,83.149,49.184,83.787,48.516,84.381Zm5.117-5.163c-2.13-2.337-4.261-4.929-6.328-7.712,2,.085,4.073.127,6.161.127,2.151,0,4.261-.042,6.349-.149a91.335,91.335,0,0,1-6.182,7.733Zm27.3,6.374a9.492,9.492,0,0,1-3.446,6.65c-3.321,1.955-10.4-.595-18.045-7.266-.877-.765-1.754-1.593-2.652-2.443A104.851,104.851,0,0,0,65.6,71.146a101.336,101.336,0,0,0,14.244-2.231c.209.871.4,1.742.564,2.592A39.381,39.381,0,0,1,80.929,85.592Zm3.8-22.838c-.585.191-1.17.382-1.775.552a109.02,109.02,0,0,0-5.326-13.554,108.51,108.51,0,0,0,5.117-13.363c1.086.319,2.13.659,3.133,1,9.732,3.4,16.562,8.456,16.562,12.322C102.441,53.874,95.152,59.249,84.73,62.754ZM53.466,59.567a9.732,9.732,0,1,0-9.565-9.73A9.647,9.647,0,0,0,53.466,59.567Z" transform="translate(1 -1.233)" fill="none" stroke="#151d41" stroke-width="2"/></svg>